<?xml version="1.0" encoding="UTF-8" standalone="no" ?>
<!DOCTYPE svg PUBLIC "-//W3C//DTD SVG 1.1//EN" "http://www.w3.org/Graphics/SVG/1.1/DTD/svg11.dtd">
<svg xmlns="http://www.w3.org/2000/svg" xmlns:xlink="http://www.w3.org/1999/xlink" version="1.1" width="1280" height="1024" viewBox="0 0 1280 1024" xml:space="preserve">
<desc>Created with Fabric.js 4.4.0</desc>
<defs>
</defs>
<g transform="matrix(1 0 0 1 640 512)" id="background-logo"  >
<rect style="stroke: none; stroke-width: 0; stroke-dasharray: none; stroke-linecap: butt; stroke-dashoffset: 0; stroke-linejoin: miter; stroke-miterlimit: 4; fill: rgb(255,255,255); fill-rule: nonzero; opacity: 1;"  paint-order="stroke"  x="-640" y="-512" rx="0" ry="0" width="1280" height="1024" />
</g>
<g transform="matrix(2.395085282835113 0 0 2.3950852828351135 640 330.63815369857207)" id="logo-logo"  >
<g style=""  paint-order="stroke"   >
		<g transform="matrix(2.7036828111353284 0 0 -2.7036828111353284 0 2.842171e-14)"  >
<path style="stroke: none; stroke-width: 1; stroke-dasharray: none; stroke-linecap: butt; stroke-dashoffset: 0; stroke-linejoin: miter; stroke-miterlimit: 4; fill: rgb(20,56,44); fill-rule: nonzero; opacity: 1;"  paint-order="stroke"  transform=" translate(32.50572047274658, 17.744999999999997)" d="M 0 0 C -0.981 0.57 -2.441 0.205 -2.441 0.205 C 0.4790000000000001 -0.844 -0.30799999999999983 -2.487 0.3650000000000002 -3.65 C 0.6010000000000002 -4.0569999999999995 1.5740000000000003 -4.198 1.6650000000000003 -3.194 C 1.757 -2.19 0.981 -0.57 0 0 M -32.119 -5.409 C -32.131 -5.366 -32.143 -5.324 -32.155 -5.284 L -50.893 -8.753 C -50.86 -8.934 -50.824 -9.103 -50.783 -9.254 C -47.134 -10.434 -43.300000000000004 -10.915 -39.499 -11.404 C -37.778000000000006 -11.598 -35.007000000000005 -12.002 -33.308 -12.163 C -32.865 -12.196 -32.422 -12.218 -31.978 -12.235 C -31.8 -11.777999999999999 -31.451 -10.818 -31.363000000000003 -10.136 C -31.167 -8.628 -31.699 -6.843999999999999 -32.119 -5.408999999999999 M 1.9050000000000011 -3.992999999999999 C 1.2430000000000012 -5.590999999999999 -1.4259999999999988 -5.008999999999999 -2.3729999999999984 -3.080999999999999 C -3.2219999999999986 -1.352999999999999 -3.6729999999999983 0.010000000000001119 -5.660999999999998 -0.379999999999999 L -20.068999999999996 -3.046999999999999 C -20.458999999999996 -3.6809999999999987 -20.997999999999994 -4.138999999999999 -21.627999999999997 -4.106999999999999 C -20.334999999999997 -3.664999999999999 -19.862999999999996 -1.9039999999999995 -19.800999999999995 -0.6719999999999993 C -19.756999999999994 -0.06899999999999928 -20.355999999999995 -0.046999999999999265 -20.792999999999996 -0.21199999999999924 L -21.173999999999996 -1.4699999999999993 C -21.173999999999996 -1.4699999999999993 -21.729999999999997 -0.38399999999999923 -21.729999999999997 -0.2119999999999993 C -21.729999999999997 -0.04099999999999929 -21.679 0.3870000000000007 -21.780999999999995 0.7630000000000007 C -21.883999999999997 1.1390000000000007 -22.123999999999995 1.9600000000000009 -22.396999999999995 1.9780000000000006 C -22.670999999999996 1.9950000000000006 -23.817999999999994 1.4640000000000006 -24.278999999999996 1.0880000000000005 C -24.741999999999997 0.7110000000000005 -25.117999999999995 0.47300000000000053 -25.955999999999996 0.9510000000000005 C -26.794999999999995 1.4300000000000006 -27.491999999999997 2.3180000000000005 -27.770999999999997 2.4050000000000002 C -28.426 2.6100000000000003 -28.479999999999997 2.1060000000000003 -28.586 1.1510000000000002 C -28.701999999999998 0.09600000000000031 -28.962 -0.8799999999999999 -28.712 -0.9939999999999998 C -28.46 -1.1079999999999999 -28.277 -1.0619999999999998 -28.255 -1.2439999999999998 C -28.232 -1.4269999999999998 -28.854 -1.4899999999999998 -28.689 -1.8939999999999997 C -28.594 -2.126 -28.381 -2.5109999999999997 -28.414 -2.6929999999999996 C -28.449 -2.8759999999999994 -28.745 -3.1279999999999997 -28.745 -3.3779999999999997 C -28.745 -3.6289999999999996 -28.517 -3.8339999999999996 -28.528000000000002 -3.9709999999999996 C -28.540000000000003 -4.106999999999999 -28.551000000000002 -4.223 -28.826 -4.587 C -29.099 -4.952 -29.394000000000002 -4.976999999999999 -29.19 -5.760999999999999 C -28.954 -6.672999999999999 -28.366 -7.902999999999999 -27.488 -7.664 C -26.624 -7.428999999999999 -24.589 -6.233 -24.526 -6.196999999999999 C -24.572 -6.251999999999999 -25.967 -7.914999999999999 -26.897 -8.498999999999999 C -27.845 -9.092999999999998 -27.924 -8.876 -28.322999999999997 -9.584 C -28.641 -10.145 -28.979999999999997 -11.652999999999999 -29.103999999999996 -12.25 C -28.251999999999995 -12.226 -27.400999999999996 -12.18 -26.554999999999996 -12.116 C -24.943999999999996 -11.291 -23.608999999999995 -10.011 -22.197999999999997 -8.879 C -22.544999999999998 -7.064 -22.378999999999998 -5.137 -21.627999999999997 -3.446999999999999 C -22.127999999999997 -5.063999999999999 -22.112999999999996 -6.828999999999999 -21.650999999999996 -8.453 C -21.627999999999997 -8.434999999999999 -21.606999999999996 -8.418 -21.583999999999996 -8.399999999999999 C -20.981999999999996 -9.203999999999999 -20.052999999999997 -9.674 -19.129999999999995 -10.04 C -19.997999999999994 -9.918 -20.878999999999994 -9.681999999999999 -21.603999999999996 -9.17 C -22.884999999999994 -10.413 -24.281999999999996 -11.55 -25.822999999999997 -12.467 C -23.662999999999997 -15.173 -22.039999999999996 -18.538 -22.195999999999998 -22.054000000000002 C -19.714 -22.569000000000003 -17.294999999999998 -23.625000000000004 -15.740999999999998 -25.701 C -16.476999999999997 -25.103 -17.31 -24.59 -18.174999999999997 -24.205000000000002 C -19.680999999999997 -23.499000000000002 -21.248999999999995 -22.85 -22.903999999999996 -22.601000000000003 C -22.547999999999995 -19.068 -24.148999999999997 -15.629000000000001 -26.332999999999995 -12.908000000000003 C -29.641999999999996 -13.204000000000002 -33.007 -13.122000000000003 -36.285999999999994 -12.550000000000002 C -40.45799999999999 -11.881000000000002 -49.294999999999995 -11.077000000000002 -52.461 -8.656000000000002 C -52.092 -8.801000000000002 -51.721 -8.935000000000002 -51.35 -9.064000000000002 L -51.607 -7.9300000000000015 C -51.795 -7.309000000000001 -51.905 -5.828000000000001 -52.791 -5.9540000000000015 C -54.096999999999994 -6.359000000000002 -54.241 -5.657000000000002 -55.314 -5.665000000000002 C -55.427 -5.674000000000002 -55.526 -5.700000000000002 -55.686 -5.716000000000002 C -56.074 -5.764000000000002 -56.409 -5.595000000000002 -56.743 -5.645000000000002 C -56.887 -5.6750000000000025 -57.029 -5.834000000000002 -57.161 -5.914000000000002 C -57.419000000000004 -6.076000000000002 -57.81 -5.993000000000002 -58.042 -6.087000000000002 C -58.413000000000004 -6.523000000000002 -58.766 -7.044000000000002 -58.963 -7.587000000000002 C -58.947 -6.963000000000003 -58.661 -6.293000000000003 -58.278 -5.8000000000000025 C -58.025999999999996 -5.5740000000000025 -57.646 -5.678000000000003 -57.385 -5.533000000000002 C -56.867999999999995 -4.964000000000002 -56.346 -5.2470000000000026 -55.733999999999995 -5.214000000000002 C -55.37199999999999 -5.129000000000002 -54.898999999999994 -5.0980000000000025 -54.529999999999994 -5.241000000000002 C -54.20499999999999 -5.335000000000003 -53.90599999999999 -5.516000000000003 -53.571999999999996 -5.528000000000002 C -53.267999999999994 -5.507000000000002 -52.766 -5.303000000000003 -52.398999999999994 -5.391000000000002 C -51.68899999999999 -5.629000000000001 -51.36699999999999 -6.379000000000001 -51.17399999999999 -7.205000000000002 L -32.684 -4.146000000000002 C -32.739 -4.083000000000002 -32.8 -4.020000000000001 -32.869 -3.9600000000000017 C -33.314 -3.5660000000000016 -33.469 -3.0700000000000016 -33.502 -2.1460000000000017 C -33.537 -1.2220000000000018 -33.32 -0.32100000000000173 -33.32 -0.32100000000000173 C -33.024 -0.6980000000000017 -32.67 -1.8840000000000017 -32.67 -1.8840000000000017 C -32.67 -1.8840000000000017 -32.647 -1.4720000000000018 -32.989000000000004 -0.5150000000000017 C -33.330000000000005 0.4429999999999983 -33.833000000000006 2.5649999999999986 -33.537000000000006 3.3409999999999984 C -33.239000000000004 4.116999999999998 -31.985000000000007 5.986999999999998 -30.252000000000006 6.488999999999999 C -28.517000000000007 6.990999999999999 -25.847000000000005 6.579999999999999 -23.680000000000007 5.029999999999999 C -21.513000000000005 3.4779999999999993 -20.943000000000005 1.6749999999999994 -20.943000000000005 1.6749999999999994 C -20.943000000000005 1.6749999999999994 -20.236000000000004 6.789999999999999 -24.605000000000004 9.351999999999999 C -21.936000000000003 8.428999999999998 -20.490000000000002 5.766999999999999 -20.301000000000002 3.057999999999999 C -20.236 2.113999999999999 -20.368000000000002 1.165999999999999 -20.650000000000002 0.2619999999999991 L -20.650000000000002 0.261 C -20.179000000000002 0.363 -19.655 0.27 -19.450000000000003 -0.20700000000000002 C -19.332000000000004 -0.663 -19.393000000000004 -1.3270000000000002 -19.594 -1.98 L -2.576 0.836 L -2.576 0.834 C -2.542 0.84 -0.7 1.117 0.479 0.42 C 1.928 -0.435 2.567 -2.397 1.905 -3.993 M -57.501999999999995 6.497 L -56.413 7.288 L -55.324 6.497 L -55.739999999999995 7.777 L -54.650999999999996 8.568 L -55.997 8.568 L -56.413 9.849 L -56.82899999999999 8.568 L -58.175 8.568 L -57.086 7.776999999999999 z M -49.352999999999994 8.423 L -47.99699999999999 9.408 L -46.64099999999999 8.423 L -47.15899999999999 10.017 L -45.80199999999999 11.001999999999999 L -47.47899999999999 11.001999999999999 L -47.99699999999999 12.595999999999998 L -48.513999999999996 11.001999999999999 L -50.190999999999995 11.001999999999999 L -48.834999999999994 10.017 z M -40.681 12.471 L -39.058 13.65 L -37.435 12.471 L -38.055 14.379 L -36.432 15.558 L -38.438 15.558 L -39.058 17.466 L -39.678 15.558000000000002 L -41.684 15.558000000000002 L -40.061 14.379000000000001 z M -2.7149999999999963 6.497 L -1.6249999999999962 7.288 L -0.5359999999999963 6.497 L -0.9519999999999962 7.777 L 0.13700000000000379 8.568 L -1.209 8.568 L -1.625 9.849 L -2.041 8.568 L -3.388 8.568 L -2.299 7.776999999999999 z M -11.397999999999996 8.423 L -10.041999999999996 9.408 L -8.685999999999996 8.423 L -9.203999999999997 10.017 L -7.847999999999997 11.001999999999999 L -9.523999999999997 11.001999999999999 L -10.041999999999998 12.595999999999998 L -10.559999999999999 11.001999999999999 L -12.235999999999999 11.001999999999999 L -10.879999999999999 10.017 z M -20.602999999999994 12.471 L -18.979999999999993 13.65 L -17.356999999999992 12.471 L -17.976999999999993 14.379 L -16.353999999999992 15.558 L -18.359999999999992 15.558 L -18.979999999999993 17.466 L -19.599999999999994 15.558000000000002 L -21.605999999999995 15.558000000000002 L -19.982999999999993 14.379000000000001 z M -30.908999999999992 18.424 L -29.01899999999999 19.797 L -27.12899999999999 18.424 L -27.850999999999992 20.646 L -25.96099999999999 22.019000000000002 L -28.29699999999999 22.019000000000002 L -29.01899999999999 24.241000000000003 L -29.740999999999993 22.019000000000002 L -32.07699999999999 22.019000000000002 L -30.18699999999999 20.646 z M -25.920999999999992 -20.75 C -28.526999999999994 -20.611 -31.202999999999992 -20.637 -33.76599999999999 -20.408 C -36.31899999999999 -20.151 -38.91699999999999 -20.078000000000003 -41.42299999999999 -19.446 C -44.993999999999986 -17.698 -48.23099999999999 -15.351000000000003 -51.606999999999985 -13.279000000000002 C -52.822999999999986 -12.551000000000002 -54.130999999999986 -12.110000000000001 -55.466999999999985 -11.656000000000002 C -56.390999999999984 -11.315000000000003 -57.02099999999999 -10.932000000000002 -57.393999999999984 -10.373000000000003 C -57.414999999999985 -10.868000000000002 -57.51099999999998 -11.890000000000002 -57.935999999999986 -12.298000000000004 C -58.505999999999986 -12.846000000000004 -59.612999999999985 -13.370000000000005 -59.612999999999985 -13.370000000000005 C -59.612999999999985 -17.750000000000004 -57.14899999999999 -21.892000000000003 -55.16399999999999 -25.245000000000005 C -53.33499999999999 -28.337000000000003 -53.01699999999999 -30.337000000000003 -52.97799999999999 -30.631000000000004 L -53.19699999999999 -28.149000000000004 C -48.16599999999999 -25.000000000000004 -42.627999999999986 -19.735000000000007 -42.627999999999986 -19.735000000000007 C -42.627999999999986 -19.735000000000007 -41.00099999999998 -20.411000000000005 -40.12999999999999 -20.545000000000005 C -36.84999999999999 -21.052000000000007 -28.63899999999999 -20.838000000000005 -25.92099999999999 -20.750000000000004 M 0.403 -6.258 C 0.556 -6.258 0.7050000000000001 -6.248 0.8500000000000001 -6.229 C 0.22000000000000008 -15.309999999999999 -0.875 -28.122999999999998 -2.3449999999999998 -33.922000000000004 C -3.4799999999999995 -38.400000000000006 -6.688 -43.095000000000006 -11.882000000000001 -47.877 C -16.353 -51.993 -22.191000000000003 -56.044000000000004 -28.764000000000003 -59.594 L -29.019000000000002 -59.731 L -29.274 -59.594 C -35.848 -56.044000000000004 -41.686 -51.993 -46.156000000000006 -47.877 C -49.461000000000006 -44.835 -51.96000000000001 -41.828 -53.635000000000005 -38.889 C -53.264 -38.794000000000004 -52.89900000000001 -38.698 -52.541000000000004 -38.599000000000004 C -50.228 -42.515 -46.392 -46.593 -41.351000000000006 -50.525000000000006 L -40.224000000000004 -45.574000000000005 C -40.102000000000004 -44.72800000000001 -39.458000000000006 -40.044000000000004 -39.513000000000005 -35.602000000000004 C -39.596000000000004 -28.840000000000003 -42.717000000000006 -24.314000000000004 -42.797000000000004 -24.199000000000005 C -42.748000000000005 -24.334000000000007 -41.145 -28.675000000000004 -41.031000000000006 -32.054 L -42.160000000000004 -32.728 C -42.160000000000004 -32.728 -42.162000000000006 -32.726 -42.163000000000004 -32.722 C -45.837 -35.129000000000005 -50.05200000000001 -36.613 -54.289 -37.674 C -50.253 -36.092999999999996 -46.117000000000004 -34.503 -42.541000000000004 -32.022 C -42.821000000000005 -31.537 -43.201 -30.956 -43.478 -30.822 C -43.974000000000004 -30.584 -46.592 -30.617 -49.654 -31.233999999999998 C -52.717000000000006 -31.848999999999997 -54.325 -32.329 -54.565000000000005 -32.157 C -54.80500000000001 -31.985999999999997 -55.883 -29.966999999999995 -57.354000000000006 -27.091999999999995 C -58.82600000000001 -24.218999999999994 -58.980000000000004 -20.179999999999996 -59.53600000000001 -18.194999999999993 C -60.09100000000001 -16.209999999999994 -60.67800000000001 -15.549999999999994 -60.50000000000001 -13.996999999999993 C -60.32000000000001 -12.446999999999992 -59.507000000000005 -12.442999999999993 -58.964000000000006 -11.546999999999993 C -58.428000000000004 -10.663999999999994 -58.19200000000001 -9.315999999999994 -58.19200000000001 -9.315999999999994 C -58.07000000000001 -9.789999999999994 -58.047000000000004 -10.647999999999994 -58.20400000000001 -11.361999999999993 C -58.089000000000006 -10.928999999999993 -57.857000000000006 -10.421999999999993 -57.845000000000006 -9.455999999999992 C -57.82900000000001 -8.305999999999992 -57.790000000000006 -7.484999999999992 -58.31300000000001 -7.355999999999993 C -58.31300000000001 -7.355999999999993 -58.24600000000001 -7.326999999999993 -58.16100000000001 -7.334999999999993 C -57.69500000000001 -7.338999999999992 -57.58100000000001 -8.129999999999994 -57.50800000000001 -8.501999999999994 C -57.41700000000001 -9.551999999999994 -57.06900000000001 -10.006999999999994 -56.482000000000006 -10.339999999999993 C -56.895 -9.500999999999992 -56.815000000000005 -8.386999999999993 -56.815000000000005 -8.386999999999993 C -55.84400000000001 -10.950999999999993 -51.797000000000004 -11.160999999999994 -49.916000000000004 -11.879999999999994 C -48.034000000000006 -12.599999999999994 -45.381 -13.813999999999993 -43.790000000000006 -14.531999999999993 C -39.42400000000001 -16.602999999999994 -39.068000000000005 -17.000999999999994 -34.15200000000001 -18.324999999999992 C -32.00800000000001 -18.941999999999993 -30.50100000000001 -18.941999999999993 -28.83600000000001 -19.283999999999992 C -27.20500000000001 -19.618999999999993 -24.17600000000001 -20.83599999999999 -24.05000000000001 -20.886999999999993 C -24.077000000000012 -20.884999999999994 -24.31900000000001 -20.863999999999994 -24.72400000000001 -20.828999999999994 C -24.84200000000001 -20.819999999999993 -24.95900000000001 -20.811999999999994 -25.077000000000012 -20.803999999999995 C -25.254000000000012 -21.142999999999994 -25.89000000000001 -22.544999999999995 -26.008000000000013 -25.290999999999997 C -26.144000000000013 -28.456999999999997 -21.87300000000001 -46.992999999999995 -21.80000000000001 -47.31399999999999 L -27.205000000000013 -31.746999999999993 L -26.760000000000012 -41.08899999999999 L -30.970000000000013 -25.700999999999993 C -31.860000000000014 -26.944999999999993 -31.92800000000001 -29.111999999999995 -32.37300000000001 -32.053999999999995 C -32.817000000000014 -34.99699999999999 -33.262000000000015 -34.346999999999994 -33.570000000000014 -36.81099999999999 C -33.875000000000014 -39.239999999999995 -32.01700000000002 -44.19299999999999 -31.963000000000015 -44.33699999999999 C -32.046000000000014 -44.23799999999999 -34.70200000000001 -41.05199999999999 -34.76900000000001 -40.883999999999986 C -34.83700000000001 -40.71299999999999 -32.475000000000016 -48.41299999999998 -32.475000000000016 -48.41299999999998 L -37.061000000000014 -41.46599999999998 C -36.75400000000001 -42.86499999999998 -35.41300000000001 -46.80999999999998 -34.93700000000001 -48.195999999999984 C -29.71600000000001 -50.41299999999998 -24.19100000000001 -51.32799999999998 -18.342000000000013 -51.389999999999986 C -25.661000000000012 -52.26999999999999 -33.21200000000001 -50.39199999999999 -39.524000000000015 -46.63899999999999 L -40.548000000000016 -51.14299999999999 C -37.18100000000002 -53.695999999999984 -33.31000000000002 -56.18099999999998 -29.019000000000016 -58.511999999999986 C -24.285000000000018 -55.938999999999986 -20.060000000000016 -53.179999999999986 -16.460000000000015 -50.347999999999985 C -16.459000000000014 -50.271999999999984 -16.459000000000014 -50.195999999999984 -16.459000000000014 -50.11999999999998 C -17.217000000000013 -48.88299999999998 -18.827000000000012 -45.92599999999998 -19.267000000000014 -42.457999999999984 C -19.267000000000014 -42.457999999999984 -17.767000000000014 -46.64899999999999 -16.425000000000015 -48.563999999999986 C -16.386000000000013 -47.44399999999999 -16.312000000000015 -46.32199999999999 -16.181000000000015 -45.200999999999986 C -15.918000000000015 -43.167999999999985 -15.286000000000016 -41.22099999999999 -15.078000000000015 -39.18499999999999 C -14.957000000000015 -38.18199999999999 -14.881000000000016 -37.16599999999999 -14.772000000000016 -36.14099999999999 C -14.589000000000016 -34.07499999999999 -13.916000000000016 -32.06399999999999 -13.195000000000016 -30.13799999999999 C -11.691000000000017 -26.39299999999999 -11.222000000000016 -22.28199999999999 -11.235000000000017 -18.26999999999999 C -11.312000000000017 -16.80499999999999 -11.278000000000016 -15.22699999999999 -11.987000000000018 -13.928999999999988 C -12.383000000000019 -13.409999999999988 -13.053000000000019 -13.061999999999987 -13.577000000000018 -12.687999999999988 C -15.074000000000018 -11.735999999999988 -16.70400000000002 -11.001999999999988 -18.342000000000017 -10.324999999999989 C -16.133000000000017 -10.891999999999989 -12.672000000000017 -11.668999999999988 -11.268000000000017 -13.56099999999999 C -10.496000000000016 -14.99299999999999 -10.505000000000017 -16.69099999999999 -10.431000000000017 -18.25599999999999 C -10.418000000000017 -22.37799999999999 -10.900000000000016 -26.56999999999999 -12.440000000000017 -30.417999999999992 C -13.147000000000018 -32.31199999999999 -13.791000000000018 -34.20799999999999 -13.974000000000018 -36.227999999999994 C -14.079000000000018 -37.23199999999999 -14.156000000000018 -38.25399999999999 -14.279000000000018 -39.279999999999994 C -14.484000000000018 -41.315999999999995 -15.121000000000018 -43.288999999999994 -15.384000000000018 -45.31099999999999 C -15.553000000000019 -46.76199999999999 -15.626000000000019 -48.22999999999999 -15.649000000000019 -49.70099999999999 C -9.02200000000002 -44.324999999999996 -4.667000000000019 -38.71999999999999 -3.384000000000018 -33.65899999999999 C -1.955000000000018 -28.01899999999999 -0.8630000000000182 -15.264999999999993 -0.2300000000000182 -6.204999999999991 C -0.0210000000000182 -6.238999999999991 0.1909999999999818 -6.257999999999991 0.4029999999999818 -6.257999999999991 M -58.99500000000002 -4.662999999999991 C -58.63900000000002 -4.412999999999991 -58.27400000000002 -4.341999999999992 -58.02800000000002 -4.308999999999991 C -58.00000000000002 -4.287999999999991 -57.97100000000002 -4.268999999999991 -57.94200000000002 -4.248999999999992 C -58.188000000000024 -0.5609999999999915 -58.34500000000002 2.2700000000000085 -58.40200000000002 3.3480000000000087 C -49.087000000000025 5.064000000000009 -41.55700000000002 7.652000000000009 -36.85200000000002 10.521000000000008 C -32.655000000000015 13.080000000000009 -29.96000000000002 15.355000000000008 -29.01900000000002 16.19100000000001 C -28.07900000000002 15.35500000000001 -25.38300000000002 13.080000000000009 -21.18600000000002 10.52100000000001 C -16.481 7.652 -8.952 5.064 0.364 3.348 C 0.347 3.03 0.321 2.56 0.287 1.96 C 0.604 1.859 0.896 1.731 1.161 1.575 C 1.22 1.54 1.278 1.503 1.335 1.466 C 1.408 2.76 1.45 3.583 1.459 3.764 L 1.483 4.237 L 1.017 4.319 C -8.336 5.964 -15.901 8.558 -20.6 11.419 C -25.700000000000003 14.525 -28.621000000000002 17.278 -28.650000000000002 17.305 L -29.019000000000002 17.656 L -29.389000000000003 17.305 C -29.417 17.278 -32.319 14.541 -37.410000000000004 11.436 C -42.115 8.568 -49.68900000000001 5.966 -59.05500000000001 4.319 L -59.522000000000006 4.237 L -59.498000000000005 3.7640000000000002 C -59.478 3.374 -59.306000000000004 -0.0039999999999995595 -58.995000000000005 -4.662999999999999 M -21.361000000000004 -2.4089999999999994 C -21.388000000000005 -2.4519999999999995 -21.410000000000004 -2.5099999999999993 -21.407000000000004 -2.5649999999999995 C -21.403000000000002 -2.6179999999999994 -21.384000000000004 -2.6649999999999996 -21.357000000000003 -2.7069999999999994 C -21.355000000000004 -2.6569999999999996 -21.355000000000004 -2.6099999999999994 -21.341000000000005 -2.5709999999999993 C -21.329000000000004 -2.5309999999999993 -21.306000000000004 -2.503999999999999 -21.277000000000005 -2.470999999999999 C -21.246000000000006 -2.439999999999999 -21.213000000000005 -2.4009999999999994 -21.183000000000003 -2.359999999999999 C -21.154000000000003 -2.316999999999999 -21.132000000000005 -2.269999999999999 -21.113000000000003 -2.222999999999999 C -21.081000000000003 -2.125999999999999 -21.065000000000005 -2.022999999999999 -21.083000000000002 -1.919999999999999 C -21.1 -1.818999999999999 -21.154000000000003 -1.717999999999999 -21.242 -1.670999999999999 C -21.195 -1.755999999999999 -21.185000000000002 -1.8429999999999989 -21.187 -1.927999999999999 C -21.193 -2.011999999999999 -21.21 -2.096999999999999 -21.239 -2.176999999999999 C -21.266000000000002 -2.2599999999999993 -21.308 -2.325999999999999 -21.361 -2.4089999999999994 M -15.741 -21.23 C -14.834 -22.767 -13.689 -24.162 -12.353 -25.347 C -13.259 -23.809 -14.408 -22.416 -15.741 -21.23 M -21.054 -3.2409999999999997 C -21.093 -3.2979999999999996 -21.139 -3.3409999999999997 -21.177999999999997 -3.3189999999999995 C -21.225999999999996 -3.2959999999999994 -21.267999999999997 -3.2249999999999996 -21.296999999999997 -3.1579999999999995 C -21.327999999999996 -3.0899999999999994 -21.352999999999998 -3.0179999999999993 -21.375999999999998 -2.9439999999999995 C -21.368999999999996 -3.0199999999999996 -21.360999999999997 -3.0979999999999994 -21.342999999999996 -3.1739999999999995 C -21.319999999999997 -3.2489999999999997 -21.303999999999995 -3.3309999999999995 -21.222999999999995 -3.3959999999999995 C -21.179999999999996 -3.4279999999999995 -21.108999999999995 -3.4279999999999995 -21.066999999999997 -3.4019999999999992 C -21.020999999999997 -3.3809999999999993 -20.988999999999997 -3.349999999999999 -20.958999999999996 -3.318999999999999 C -20.899999999999995 -3.255999999999999 -20.858999999999995 -3.184999999999999 -20.822999999999997 -3.113999999999999 C -20.748999999999995 -2.968999999999999 -20.696999999999996 -2.816999999999999 -20.670999999999996 -2.645999999999999 C -20.657999999999994 -2.561999999999999 -20.667999999999996 -2.460999999999999 -20.684999999999995 -2.387999999999999 C -20.698999999999995 -2.313999999999999 -20.693999999999996 -2.270999999999999 -20.684999999999995 -2.207999999999999 C -20.669999999999995 -2.1369999999999987 -20.657999999999994 -2.1079999999999988 -20.621999999999996 -2.064999999999999 C -20.583999999999996 -2.023999999999999 -20.531999999999996 -1.979999999999999 -20.469999999999995 -1.9349999999999992 C -20.410999999999994 -1.8859999999999992 -20.340999999999994 -1.834999999999999 -20.281999999999996 -1.7679999999999991 C -20.223999999999997 -1.7009999999999992 -20.174999999999997 -1.620999999999999 -20.141999999999996 -1.536999999999999 C -20.110999999999997 -1.451999999999999 -20.096999999999994 -1.365999999999999 -20.094999999999995 -1.276999999999999 C -20.092999999999996 -1.184999999999999 -20.118999999999996 -1.088999999999999 -20.172999999999995 -1.0119999999999991 C -20.284999999999993 -0.8559999999999991 -20.464999999999996 -0.8099999999999992 -20.617999999999995 -0.8189999999999991 C -20.473999999999997 -0.8759999999999991 -20.343999999999994 -0.9679999999999991 -20.302999999999994 -1.084999999999999 C -20.257999999999992 -1.195999999999999 -20.296999999999993 -1.3299999999999992 -20.353999999999992 -1.444999999999999 C -20.41099999999999 -1.557999999999999 -20.50399999999999 -1.633999999999999 -20.627999999999993 -1.7239999999999989 C -20.688999999999993 -1.769999999999999 -20.760999999999992 -1.8149999999999988 -20.823999999999995 -1.892999999999999 C -20.889999999999993 -1.964999999999999 -20.929999999999996 -2.085999999999999 -20.938999999999993 -2.164999999999999 C -20.956999999999994 -2.253999999999999 -20.941999999999993 -2.3649999999999993 -20.917999999999992 -2.439999999999999 C -20.895999999999994 -2.5149999999999992 -20.885999999999992 -2.5669999999999993 -20.882999999999992 -2.6359999999999992 C -20.87599999999999 -2.770999999999999 -20.909999999999993 -2.9169999999999994 -20.96099999999999 -3.051999999999999 C -20.98599999999999 -3.1189999999999993 -21.016999999999992 -3.184999999999999 -21.05399999999999 -3.240999999999999 M -27.888999999999992 -1.3449999999999993 C -27.888999999999992 -1.3449999999999993 -27.337999999999994 -1.3369999999999993 -27.287999999999993 -1.3139999999999994 C -27.238999999999994 -1.2909999999999995 -27.071999999999992 -1.0419999999999994 -27.377999999999993 -1.0369999999999995 C -27.683999999999994 -1.0329999999999995 -27.888999999999992 -1.3449999999999995 -27.888999999999992 -1.3449999999999995 M -62.06099999999999 -21.226 C -62.40699999999999 -19.499 -62.757999999999996 -17.773 -63.17699999999999 -16.063 C -63.516999999999996 -14.447999999999999 -64.25299999999999 -12.899999999999999 -64.356 -11.244 L -61.831999999999994 -10.777 C -61.846 -10.809 -61.85999999999999 -10.84 -61.870999999999995 -10.872 C -60.91799999999999 -9.794 -59.535999999999994 -9.456 -58.24399999999999 -9.05 C -58.562999999999995 -9.002 -58.904999999999994 -8.997 -59.24799999999999 -9.034 C -59.29799999999999 -8.688 -59.38899999999999 -8.352 -59.53499999999999 -8.040000000000001 C -59.49599999999999 -8.39 -59.51799999999999 -8.745000000000001 -59.58599999999999 -9.085 C -59.84299999999999 -9.135000000000002 -60.09799999999999 -9.213000000000001 -60.33899999999999 -9.316 C -60.37799999999999 -8.872 -60.50499999999999 -8.436 -60.68999999999999 -8.040000000000001 C -60.60199999999999 -8.525 -60.593999999999994 -9.026000000000002 -60.70799999999999 -9.501000000000001 C -60.95599999999999 -9.645000000000001 -61.18099999999999 -9.822000000000001 -61.37299999999999 -10.033000000000001 C -61.27499999999999 -9.544 -61.55699999999999 -8.753000000000002 -61.87599999999999 -8.407000000000002 C -61.71799999999999 -8.903000000000002 -61.55199999999999 -9.680000000000001 -61.70599999999999 -10.045000000000002 C -62.11999999999999 -10.290000000000001 -62.322999999999986 -9.789000000000001 -62.493999999999986 -9.475000000000001 C -62.69399999999999 -9.167000000000002 -62.972999999999985 -8.844000000000001 -63.33699999999999 -8.770000000000001 C -63.18999999999999 -8.876000000000001 -63.07199999999999 -9.010000000000002 -62.96999999999999 -9.158000000000001 L -64.66999999999999 -9.439000000000002 C -64.14199999999998 -8.876000000000001 -63.44099999999999 -8.21 -62.771999999999984 -8.099000000000002 C -62.106999999999985 -8.218000000000002 -61.947999999999986 -7.782000000000002 -61.51099999999998 -7.433000000000002 C -61.216999999999985 -7.392000000000001 -60.92899999999998 -7.580000000000002 -60.62999999999998 -7.655000000000002 C -60.43399999999998 -7.694000000000002 -60.274999999999984 -7.533000000000002 -60.13899999999998 -7.449000000000002 C -59.60499999999998 -7.096000000000002 -59.04199999999998 -7.778000000000001 -58.59399999999998 -8.049000000000001 C -59.15699999999998 -7.374000000000001 -59.65699999999998 -6.689000000000001 -60.56699999999998 -7.307000000000001 C -60.75199999999998 -7.213000000000001 -61.058999999999976 -7.0790000000000015 -61.311999999999976 -7.040000000000001 C -61.77999999999998 -6.9030000000000005 -62.07999999999998 -7.504000000000001 -62.38399999999998 -7.703000000000001 C -62.668999999999976 -7.762000000000001 -63.07299999999998 -7.702000000000001 -63.32299999999998 -7.923000000000001 C -63.90699999999998 -8.332 -64.41999999999997 -8.855 -64.78999999999998 -9.459000000000001 L -66.95999999999998 -9.818000000000001 C -67.35399999999998 -10.522000000000002 -67.19399999999997 -11.129000000000001 -66.63699999999999 -11.667000000000002 L -65.02999999999999 -11.369000000000002 C -64.98199999999999 -12.46 -64.67399999999999 -13.524000000000001 -64.35099999999998 -14.555000000000001 C -64.04399999999998 -15.665000000000001 -63.807999999999986 -16.811 -63.55999999999999 -17.950000000000003 C -62.30399999999999 -22.915000000000003 -61.17799999999999 -35.034000000000006 -56.36099999999999 -37.382000000000005 C -59.88499999999999 -34.534000000000006 -61.133999999999986 -25.619000000000007 -62.06099999999999 -21.226000000000006 M -17.64999999999999 -38.659000000000006 C -18.64699999999999 -34.169000000000004 -19.926999999999992 -29.686000000000007 -21.45699999999999 -25.34700000000001 C -20.46099999999999 -29.83700000000001 -19.17699999999999 -34.32100000000001 -17.64999999999999 -38.659000000000006 M -28.52 9.4 C -27.852999999999998 9.595 -27.154 9.709 -26.469 9.746 C -29.276 10.071 -32.449 8.474 -33.032000000000004 5.542000000000001 C -33.45 5.042000000000001 -33.749 4.4510000000000005 -33.861000000000004 3.791000000000001 C -33.00300000000001 5.4590000000000005 -31.412000000000006 6.508000000000001 -29.755000000000003 7.265000000000001 C -29.969 7.2410000000000005 -30.185000000000002 7.202000000000001 -30.398000000000003 7.15 C -30.418000000000003 8.019 -29.598000000000003 8.926 -28.520000000000003 9.4 M -19.267000000000003 -30.036 C -18.555000000000003 -33.502 -17.564000000000004 -36.954 -16.323000000000004 -40.268 C -17.032000000000004 -36.802 -18.027000000000005 -33.35 -19.267000000000003 -30.036 M -12.833000000000002 -26.066000000000003 C -15.169000000000002 -23.894000000000002 -17.339000000000002 -21.490000000000002 -19.267000000000003 -18.949 C -16.932000000000002 -21.121000000000002 -14.758000000000003 -23.523000000000003 -12.833000000000002 -26.066000000000003" stroke-linecap="round" />
</g>
</g>
</g>
<g transform="matrix(1.9211538461538462 0 0 1.9211538461538462 638.916192443851 693.9870143335153)" id="text-logo"  >
<g style=""  paint-order="stroke"   >
		<g transform="matrix(1 0 0 1 0 0)" id="text-logo-path-0"  >
<path style="stroke: none; stroke-width: 0; stroke-dasharray: none; stroke-linecap: butt; stroke-dashoffset: 0; stroke-linejoin: miter; stroke-miterlimit: 4; fill: rgb(20,56,44); fill-rule: nonzero; opacity: 1;"  paint-order="stroke"  transform=" translate(-270.485, 30.375)" d="M 3.73 -60.75 L 29.77 -22.57 L 30.2 -21.96 L 30.2 0 L 44.09 0 L 44.09 -21.87 L 70.56 -60.75 L 54.5 -60.75 L 37.15 -33.94 L 19.79 -60.75 Z M 76.9 0 L 92.09 0 L 95.9 -8.94 L 125.15 -8.94 L 128.97 0 L 144.16 0 L 118.12 -60.75 L 102.93 -60.75 Z M 101.11 -21.09 L 110.57 -43.05 L 119.95 -21.09 Z M 169.94 0 L 183.82 0 L 183.82 -13.28 L 195.63 -13.28 L 203.79 0 L 220.28 0 L 208.99 -17.18 C 215.24 -21.26 219.24 -28.38 219.24 -37.15 C 219.24 -50.51 209.51 -60.75 195.63 -60.75 L 169.94 -60.75 Z M 183.82 -26.3 L 183.82 -47.74 L 193.72 -47.74 C 199.88 -47.74 204.48 -43.4 204.48 -37.06 C 204.48 -30.81 200.23 -26.3 193.72 -26.3 Z M 246.57 -60.75 L 246.57 0 L 273.31 0 C 290.84 0 303.68 -12.15 303.68 -30.38 C 303.68 -47.91 291.53 -60.75 273.31 -60.75 Z M 260.46 -13.02 L 260.46 -47.74 L 271.57 -47.74 C 281.64 -47.74 288.93 -40.88 288.93 -30.38 C 288.93 -20.31 282.07 -13.02 271.57 -13.02 Z M 321.13 0 L 336.32 0 L 340.14 -8.94 L 369.38 -8.94 L 373.2 0 L 388.39 0 L 362.35 -60.75 L 347.17 -60.75 Z M 345.34 -21.09 L 354.8 -43.05 L 364.18 -21.09 Z M 465.38 -12.67 L 465.38 -33.85 L 434.65 -33.85 L 434.65 -23.43 L 451.49 -23.43 L 451.49 -17.79 C 447.41 -13.97 442.72 -12.32 437.34 -12.32 C 427.45 -12.32 420.16 -20.05 420.16 -30.29 C 420.16 -40.36 426.93 -48.43 437.34 -48.43 C 443.5 -48.43 449.15 -45.31 452.36 -40.53 L 464.59 -47.74 C 459.3 -56.59 449.75 -62.14 437.34 -62.14 C 419.03 -62.14 405.66 -49.47 405.66 -30.29 C 405.66 -11.98 418.25 1.39 437.34 1.39 C 449.23 1.39 459.3 -3.73 465.38 -12.67 Z M 492.28 -60.75 L 492.28 0 L 537.24 0 L 537.24 -13.02 L 506.17 -13.02 L 506.17 -23.87 L 531.16 -23.87 L 531.16 -36.02 L 506.17 -36.02 L 506.17 -47.74 L 537.24 -47.74 L 537.24 -60.75 Z" stroke-linecap="round" />
</g>
</g>
</g>
<g transform="matrix(1.9211538461538462 0 0 1.9211538461538462 639.3126105238265 877.9151451063169)" id="tagline-2ee834a7-b79d-4dd5-a79a-e326c1919813-logo"  >
<g style=""  paint-order="stroke"   >
		<g transform="matrix(1 0 0 1 0 -22.878041800901542)" id="tagline-2ee834a7-b79d-4dd5-a79a-e326c1919813-logo-path-0"  >
<path style="stroke: none; stroke-width: 0; stroke-dasharray: none; stroke-linecap: butt; stroke-dashoffset: 0; stroke-linejoin: miter; stroke-miterlimit: 4; fill: rgb(20,56,44); fill-rule: nonzero; opacity: 1;"  paint-order="stroke"  transform=" translate(-114.755, 16.265)" d="M 19.02 0 L 16.96 -5.69 L 6.14 -5.69 L 4.08 0 L 0.66 0 L 9.77 -24.16 L 13.37 -24.16 L 22.45 0 L 19.02 0 Z M 7.05 -8.17 L 16.06 -8.17 L 11.55 -20.6 L 7.05 -8.17 Z M 52.99 -24.19 L 56.79 -24.19 L 56.79 0 L 53.62 0 L 53.62 -19.3 L 45.9 0 L 43.08 0 L 35.33 -19.23 L 35.33 0 L 32.15 0 L 32.15 -24.19 L 35.95 -24.19 L 44.54 -3.87 L 52.99 -24.19 Z M 81.96 -22.03 L 71.56 -22.03 L 71.56 -13.61 L 80.92 -13.61 L 80.92 -11.17 L 71.56 -11.17 L 71.56 -2.58 L 81.96 -2.58 L 81.96 0 L 68.38 0 L 68.38 -24.61 L 81.96 -24.61 L 81.96 -22.03 Z M 80.92 -32.81 L 80.92 -30.23 L 73.48 -26.15 L 73.48 -28.41 L 80.92 -32.81 Z M 95.72 -24.61 L 95.72 -2.48 L 104.44 -2.48 L 104.44 0 L 92.54 0 L 92.54 -24.61 L 95.72 -24.61 Z M 114.18 -24.61 L 117.36 -24.61 L 117.36 0 L 114.18 0 L 114.18 -24.61 Z M 140.22 -24.92 Q 143.64 -24.92 146.38 -23.32 Q 149.12 -21.71 150.7 -18.83 Q 152.27 -15.95 152.27 -12.32 L 152.27 -12.32 Q 152.27 -8.69 150.7 -5.81 Q 149.12 -2.93 146.38 -1.33 Q 143.64 0.28 140.22 0.28 L 140.22 0.28 Q 136.8 0.28 134.03 -1.33 Q 131.25 -2.93 129.68 -5.81 Q 128.11 -8.69 128.11 -12.32 L 128.11 -12.32 Q 128.11 -15.95 129.68 -18.83 Q 131.25 -21.71 134.03 -23.32 Q 136.8 -24.92 140.22 -24.92 L 140.22 -24.92 Z M 140.22 -21.96 Q 137.67 -21.96 135.67 -20.79 Q 133.66 -19.62 132.53 -17.44 Q 131.39 -15.25 131.39 -12.32 L 131.39 -12.32 Q 131.39 -9.42 132.53 -7.23 Q 133.66 -5.03 135.67 -3.86 Q 137.67 -2.69 140.22 -2.69 L 140.22 -2.69 Q 142.74 -2.69 144.74 -3.87 Q 146.75 -5.06 147.88 -7.24 Q 149.02 -9.42 149.02 -12.32 L 149.02 -12.32 Q 149.02 -15.25 147.88 -17.44 Q 146.75 -19.62 144.74 -20.79 Q 142.74 -21.96 140.22 -21.96 L 140.22 -21.96 Z M 179.7 0 L 176.11 0 L 169.68 -10.05 L 166.23 -10.05 L 166.23 0 L 163.05 0 L 163.05 -24.61 L 171.15 -24.61 Q 175.34 -24.61 177.43 -22.6 Q 179.53 -20.6 179.53 -17.28 L 179.53 -17.28 Q 179.53 -14.28 177.85 -12.44 Q 176.18 -10.61 173 -10.16 L 173 -10.16 L 179.7 0 Z M 166.23 -21.85 L 166.23 -12.36 L 170.87 -12.36 Q 176.28 -12.36 176.28 -17.1 L 176.28 -17.1 Q 176.28 -21.85 170.87 -21.85 L 170.87 -21.85 L 166.23 -21.85 Z M 203.47 -22.03 L 193.07 -22.03 L 193.07 -13.61 L 202.43 -13.61 L 202.43 -11.17 L 193.07 -11.17 L 193.07 -2.58 L 203.47 -2.58 L 203.47 0 L 189.9 0 L 189.9 -24.61 L 203.47 -24.61 L 203.47 -22.03 Z M 228.64 -22.1 L 216.46 -2.62 L 228.85 -2.62 L 228.85 0 L 212.9 0 L 212.9 -2.51 L 225.08 -21.99 L 213.21 -21.99 L 213.21 -24.61 L 228.64 -24.61 L 228.64 -22.1 Z" stroke-linecap="round" />
</g>
		<g transform="matrix(1 0 0 1 -0.4537955378729066 26.82304180090148)" id="tagline-2ee834a7-b79d-4dd5-a79a-e326c1919813-logo-path-1"  >
<path style="stroke: none; stroke-width: 0; stroke-dasharray: none; stroke-linecap: butt; stroke-dashoffset: 0; stroke-linejoin: miter; stroke-miterlimit: 4; fill: rgb(20,56,44); fill-rule: nonzero; opacity: 1;"  paint-order="stroke"  transform=" translate(-111.86, 12.32)" d="M 0.66 -24.61 L 4.15 -24.61 L 11.66 -3.53 L 19.27 -24.61 L 22.72 -24.61 L 13.68 0 L 9.67 0 L 0.66 -24.61 Z M 43.7 -24.92 Q 47.12 -24.92 49.87 -23.32 Q 52.61 -21.71 54.18 -18.83 Q 55.75 -15.95 55.75 -12.32 L 55.75 -12.32 Q 55.75 -8.69 54.18 -5.81 Q 52.61 -2.93 49.87 -1.33 Q 47.12 0.28 43.7 0.28 L 43.7 0.28 Q 40.28 0.28 37.51 -1.33 Q 34.73 -2.93 33.16 -5.81 Q 31.59 -8.69 31.59 -12.32 L 31.59 -12.32 Q 31.59 -15.95 33.16 -18.83 Q 34.73 -21.71 37.51 -23.32 Q 40.28 -24.92 43.7 -24.92 L 43.7 -24.92 Z M 43.7 -21.96 Q 41.16 -21.96 39.15 -20.79 Q 37.14 -19.62 36.01 -17.44 Q 34.87 -15.25 34.87 -12.32 L 34.87 -12.32 Q 34.87 -9.42 36.01 -7.23 Q 37.14 -5.03 39.15 -3.86 Q 41.16 -2.69 43.7 -2.69 L 43.7 -2.69 Q 46.22 -2.69 48.22 -3.87 Q 50.23 -5.06 51.37 -7.24 Q 52.5 -9.42 52.5 -12.32 L 52.5 -12.32 Q 52.5 -15.25 51.37 -17.44 Q 50.23 -19.62 48.22 -20.79 Q 46.22 -21.96 43.7 -21.96 L 43.7 -21.96 Z M 64.54 -24.61 L 81.61 -24.61 L 81.61 -22.03 L 74.67 -22.03 L 74.67 0 L 71.49 0 L 71.49 -22.03 L 64.54 -22.03 L 64.54 -24.61 Z M 107.9 0 L 104.3 0 L 97.88 -10.05 L 94.42 -10.05 L 94.42 0 L 91.25 0 L 91.25 -24.61 L 99.35 -24.61 Q 103.54 -24.61 105.63 -22.6 Q 107.72 -20.6 107.72 -17.28 L 107.72 -17.28 Q 107.72 -14.28 106.05 -12.44 Q 104.37 -10.61 101.2 -10.16 L 101.2 -10.16 L 107.9 0 Z M 94.42 -21.85 L 94.42 -12.36 L 99.07 -12.36 Q 104.48 -12.36 104.48 -17.1 L 104.48 -17.1 Q 104.48 -21.85 99.07 -21.85 L 99.07 -21.85 L 94.42 -21.85 Z M 131.67 -22.03 L 121.27 -22.03 L 121.27 -13.61 L 130.62 -13.61 L 130.62 -11.17 L 121.27 -11.17 L 121.27 -2.58 L 131.67 -2.58 L 131.67 0 L 118.09 0 L 118.09 -24.61 L 131.67 -24.61 L 131.67 -22.03 Z M 166.16 -24.61 L 169.34 -24.61 L 169.34 -6.32 Q 169.34 -3.28 167.61 -1.52 Q 165.88 0.24 162.77 0.24 L 162.77 0.24 Q 159.42 0.24 157.52 -1.73 Q 155.62 -3.7 155.62 -7.26 L 155.62 -7.26 L 158.79 -7.26 Q 158.79 -5.13 159.74 -3.89 Q 160.68 -2.65 162.63 -2.65 L 162.63 -2.65 Q 164.48 -2.65 165.32 -3.7 Q 166.16 -4.75 166.16 -6.32 L 166.16 -6.32 L 166.16 -24.61 Z M 194.33 -22.03 L 183.93 -22.03 L 183.93 -13.61 L 193.28 -13.61 L 193.28 -11.17 L 183.93 -11.17 L 183.93 -2.58 L 194.33 -2.58 L 194.33 0 L 180.75 0 L 180.75 -24.61 L 194.33 -24.61 L 194.33 -22.03 Z M 204.73 -24.61 L 207.91 -24.61 L 207.91 -9.84 Q 207.91 -6.21 209.51 -4.49 Q 211.12 -2.76 213.95 -2.76 L 213.95 -2.76 Q 216.74 -2.76 218.31 -4.5 Q 219.88 -6.25 219.88 -9.84 L 219.88 -9.84 L 219.88 -24.61 L 223.06 -24.61 L 223.06 -9.84 Q 223.06 -4.82 220.56 -2.29 Q 218.07 0.24 213.88 0.24 L 213.88 0.24 Q 209.72 0.24 207.23 -2.29 Q 204.73 -4.82 204.73 -9.84 L 204.73 -9.84 L 204.73 -24.61 Z" stroke-linecap="round" />
</g>
</g>
</g>
</svg>